<?xml version="1.0" standalone="no"?>
<!DOCTYPE svg PUBLIC "-//W3C//DTD SVG 20010904//EN"
 "http://www.w3.org/TR/2001/REC-SVG-20010904/DTD/svg10.dtd">
<svg version="1.0" xmlns="http://www.w3.org/2000/svg"
 width="512.000000pt" height="512.000000pt" viewBox="0 0 512.000000 512.000000"
 preserveAspectRatio="xMidYMid meet">
<metadata>
Created by potrace 1.11, written by Peter Selinger 2001-2013
</metadata>
<g transform="translate(0.000000,512.000000) scale(0.100000,-0.100000)"
fill="#000000" stroke="none">
<path d="M2385 4794 c-462 -49 -821 -185 -1175 -448 -122 -90 -346 -314 -436
-436 -234 -315 -371 -643 -431 -1030 -24 -159 -24 -481 0 -640 77 -498 285
-909 637 -1260 351 -352 762 -560 1260 -637 159 -24 481 -24 640 0 498 77 909
285 1260 637 141 140 240 264 329 411 l52 86 -183 426 -183 427 -366 0 -365 0
-80 -462 -80 -463 -42 -3 c-32 -2 -42 0 -42 12 0 9 79 474 175 1033 97 560
181 1046 187 1081 l10 63 412 -4 c441 -4 449 -5 570 -60 31 -14 56 -24 56 -21
0 11 -67 135 -118 218 -95 155 -191 276 -332 416 -349 349 -764 560 -1250 635
-101 15 -423 27 -505 19z m320 -1208 c246 -79 403 -302 435 -617 13 -128 4
-231 -45 -509 -60 -344 -109 -480 -247 -682 -176 -258 -448 -408 -735 -408
-261 1 -459 117 -567 333 -64 128 -87 222 -93 387 -5 122 -2 156 31 355 55
336 86 447 173 620 130 258 327 437 566 515 102 33 151 39 282 36 96 -3 136
-9 200 -30z"/>
<path d="M2355 3523 c-67 -14 -168 -49 -219 -75 -188 -94 -359 -297 -450 -533
-45 -118 -58 -170 -103 -415 -33 -183 -37 -223 -37 -370 0 -190 13 -261 72
-380 25 -51 57 -95 102 -140 104 -104 224 -150 393 -150 371 0 678 259 822
693 18 56 52 206 76 332 38 206 43 246 42 380 0 122 -4 165 -21 230 -61 225
-197 369 -397 420 -55 14 -230 19 -280 8z"/>
<path d="M3625 3488 c-2 -7 -42 -238 -90 -513 -47 -275 -88 -512 -91 -527 l-6
-28 339 0 c440 0 519 13 665 109 162 107 257 248 293 436 13 66 12 74 -15 181
-15 62 -36 128 -45 148 -38 81 -170 163 -303 191 -98 20 -740 22 -747 3z"/>
<path d="M4772 2778 c-70 -168 -280 -354 -459 -405 -35 -10 -63 -20 -63 -23 0
-3 74 -176 164 -384 l165 -380 26 59 c79 180 140 389 170 585 20 132 29 401
17 500 -8 69 -10 73 -20 48z"/>
</g>
</svg>
